<svg width="16" height="5" viewBox="0 0 16 5" fill="none" xmlns="http://www.w3.org/2000/svg">
<path d="M3.60352 2.49561V2.51318C3.60352 2.84717 3.52441 3.14893 3.36621 3.41846C3.20801 3.68799 2.99121 3.90186 2.71582 4.06006C2.44629 4.21826 2.14453 4.29736 1.81055 4.29736H1.79297C1.45898 4.29736 1.15723 4.21826 0.887695 4.06006C0.618164 3.90186 0.401367 3.68799 0.237305 3.41846C0.0791016 3.14893 0 2.84717 0 2.51318V2.49561C0 2.16162 0.0791016 1.85986 0.237305 1.59033C0.401367 1.31494 0.618164 1.09814 0.887695 0.939941C1.15723 0.781738 1.45898 0.702637 1.79297 0.702637H1.81055C2.14453 0.702637 2.44629 0.781738 2.71582 0.939941C2.99121 1.09814 3.20801 1.31494 3.36621 1.59033C3.52441 1.85986 3.60352 2.16162 3.60352 2.49561Z" fill="black"/>
<path d="M9.80176 2.49561V2.51318C9.80176 2.84717 9.72266 3.14893 9.56445 3.41846C9.40625 3.68799 9.18945 3.90186 8.91406 4.06006C8.64453 4.21826 8.34277 4.29736 8.00879 4.29736H7.99121C7.65723 4.29736 7.35547 4.21826 7.08594 4.06006C6.81641 3.90186 6.59961 3.68799 6.43555 3.41846C6.27734 3.14893 6.19824 2.84717 6.19824 2.51318V2.49561C6.19824 2.16162 6.27734 1.85986 6.43555 1.59033C6.59961 1.31494 6.81641 1.09814 7.08594 0.939941C7.35547 0.781738 7.65723 0.702637 7.99121 0.702637H8.00879C8.34277 0.702637 8.64453 0.781738 8.91406 0.939941C9.18945 1.09814 9.40625 1.31494 9.56445 1.59033C9.72266 1.85986 9.80176 2.16162 9.80176 2.49561Z" fill="black"/>
<path d="M16 2.49561V2.51318C16 2.84717 15.9209 3.14893 15.7627 3.41846C15.6045 3.68799 15.3877 3.90186 15.1123 4.06006C14.8428 4.21826 14.541 4.29736 14.207 4.29736H14.1895C13.8555 4.29736 13.5537 4.21826 13.2842 4.06006C13.0146 3.90186 12.7979 3.68799 12.6338 3.41846C12.4756 3.14893 12.3965 2.84717 12.3965 2.51318V2.49561C12.3965 2.16162 12.4756 1.85986 12.6338 1.59033C12.7979 1.31494 13.0146 1.09814 13.2842 0.939941C13.5537 0.781738 13.8555 0.702637 14.1895 0.702637H14.207C14.541 0.702637 14.8428 0.781738 15.1123 0.939941C15.3877 1.09814 15.6045 1.31494 15.7627 1.59033C15.9209 1.85986 16 2.16162 16 2.49561Z" fill="black"/>
</svg>
